<svg width="175" height="202" viewBox="0 0 175 202" fill="none" xmlns="http://www.w3.org/2000/svg">
  <path d="M114.871 154.615C114.871 140.803 126.043 129.464 139.653 129.464C153.263 129.464 164.435 140.803 164.435 154.615C164.435 168.427 153.466 179.766 139.856 179.766H115.074V154.615H114.871ZM88.8705 154.615V206.154H139.653C167.685 206.154 190.435 183.064 190.435 154.615C190.435 126.166 167.685 103.077 139.653 103.077C111.621 103.077 88.8705 126.166 88.8705 154.615Z" fill="#22AEE4"/>
  <path d="M38.0911 149.895V335H65.0069V149.895C65.0069 109.982 98.4412 77.6041 139.656 77.6041C180.871 77.6041 214.305 109.982 214.305 149.895C214.305 189.808 180.871 222.186 139.656 222.186H87.0861V248.251H139.656C195.59 248.251 241.221 204.266 241.221 149.895C241.221 95.5241 195.59 51.5387 139.656 51.5387C83.5114 51.5387 38.0911 95.5241 38.0911 149.895Z" fill="#22AEE4"/>
  <path d="M0 148.228C0 148.638 0 148.843 0 149.253V307.527C0.201935 311.013 2.01935 335 27.4632 335V148.228C27.4632 81.8023 80.5722 27.8825 145.999 27.8825C211.426 27.8825 264.535 81.8023 264.535 148.228C264.535 214.654 211.426 268.574 145.999 268.574H95.5155V296.456H145.999C226.572 296.456 291.999 230.03 291.999 148.228C291.999 66.4259 226.37 0 145.999 0C65.4271 0 0 66.4259 0 148.228Z" fill="#22AEE4"/>
  <path d="M214.614 154.615C214.614 191.215 181.567 220.906 140.831 220.906H88.8705V244.808H140.831C196.116 244.808 241.218 204.473 241.218 154.615H214.614Z" fill="#22AEE4"/>
  <path d="M141.062 269.612H88.8705V296.346H141.062C224.151 296.346 291.791 232.852 292 154.615H263.608C263.399 218.109 208.494 269.612 141.062 269.612Z" fill="#22AEE4"/>
  <path d="M85.8838 294.444H137.734C165.706 294.444 190.266 310.808 202.547 335H231.883L231.201 333.577C216.874 293.732 180.033 265.271 137.052 265.271H85.8838V294.444Z" fill="#22AEE4"/>
  <path d="M85.8838 249.85H137.65C192.822 249.85 239.139 286.056 254.124 335H283.412C267.746 269.964 208.488 221.691 137.65 221.691H85.8838V249.85Z" fill="#22AEE4"/>
</svg>
