<svg width="32" height="32" viewBox="0 0 32 32" fill="none" xmlns="http://www.w3.org/2000/svg">
  <circle cx="16" cy="16" r="16" fill="#19AAE3" fill-opacity="0.2" />
  <path
    fill-rule="evenodd"
    clip-rule="evenodd"
    d="M12.079 23.5472C12.6226 23.5472 13.0634 23.1064 13.0634 22.5627C13.0634 22.0191 12.079 20.9221 12.079 20.9221C12.079 20.9221 11.0946 22.0191 11.0946 22.5627C11.0946 23.1064 11.5353 23.5472 12.079 23.5472Z"
    fill="#19AAE3"
  />
  <path
    fill-rule="evenodd"
    clip-rule="evenodd"
    d="M15.3603 23.5472C15.904 23.5472 16.3448 23.1064 16.3448 22.5627C16.3448 22.0191 15.3603 20.9221 15.3603 20.9221C15.3603 20.9221 14.3759 22.0191 14.3759 22.5627C14.3759 23.1064 14.8167 23.5472 15.3603 23.5472Z"
    fill="#19AAE3"
  />
  <path
    fill-rule="evenodd"
    clip-rule="evenodd"
    d="M18.6417 23.5472C19.1854 23.5472 19.6261 23.1064 19.6261 22.5627C19.6261 22.0191 18.6417 20.9221 18.6417 20.9221C18.6417 20.9221 17.6573 22.0191 17.6573 22.5627C17.6573 23.1064 18.098 23.5472 18.6417 23.5472Z"
    fill="#19AAE3"
  />
  <path
    fill-rule="evenodd"
    clip-rule="evenodd"
    d="M16.6729 16.3281C15.4043 16.3281 14.3759 15.2997 14.3759 14.0312C14.3759 12.7626 15.4043 11.7342 16.6729 11.7342C17.9415 11.7342 18.9699 12.7626 18.9699 14.0312C18.9699 15.2997 17.9415 16.3281 16.6729 16.3281Z"
    fill="#FFB602"
  />
  <rect x="19.908" y="13.621" width="2.58409" height="1.72272" rx="0.861362" fill="#FFB602" />
  <rect
    x="18.1852"
    y="11.572"
    width="2.58409"
    height="1.72272"
    rx="0.861362"
    transform="rotate(-45 18.1852 11.572)"
    fill="#FFB602"
  />
  <rect x="15.6012" y="8.45282" width="1.72272" height="2.58409" rx="0.861362" fill="#FFB602" />
  <rect
    x="11.725"
    y="10.9632"
    width="1.72272"
    height="2.58409"
    rx="0.861362"
    transform="rotate(-45 11.725 10.9632)"
    fill="#FFB602"
  />
  <path
    fill-rule="evenodd"
    clip-rule="evenodd"
    d="M16.877 15.3438C16.44 13.6454 14.8982 12.3904 13.0634 12.3904C10.8887 12.3904 9.12573 14.1534 9.12573 16.3281C9.12573 17.7157 9.84347 18.9357 10.928 19.637C11.3637 20.028 11.9396 20.2659 12.5712 20.2659H18.4776C19.8368 20.2659 20.9387 19.1641 20.9387 17.8049C20.9387 16.4457 19.8368 15.3438 18.4776 15.3438H16.877Z"
    fill="white"
  />
</svg>