<svg width="23" height="22" viewBox="0 0 23 22" fill="none" xmlns="http://www.w3.org/2000/svg">
  <path
    d="M0.266949 12.0502V9.8703H17.8269C18.8302 9.8703 19.6435 9.13834 19.6435 8.23541V7.69044C19.6435 7.08849 19.1013 6.60051 18.4324 6.60051C17.7636 6.60051 17.2214 7.08849 17.2214 7.69044V8.78037H14.7993V7.69044C14.7993 5.88459 16.4259 4.42065 18.4324 4.42065C20.439 4.42065 22.0655 5.88459 22.0655 7.69044V8.23541C22.0655 10.3422 20.1679 12.0502 17.8269 12.0502H0.266949Z"
    fill="#19AAE3"
  />
  <path
    opacity="0.3"
    fill-rule="evenodd"
    clip-rule="evenodd"
    d="M0.266949 5.51056V7.69042H8.13866C10.4796 7.69042 12.3773 5.9825 12.3773 3.87567V3.3307C12.3773 1.52485 10.7507 0.0609131 8.74418 0.0609131C6.73767 0.0609131 5.11108 1.52485 5.11108 3.3307V4.42063H7.53315V3.3307C7.53315 2.72875 8.07534 2.24077 8.74418 2.24077C9.41301 2.24077 9.95521 2.72875 9.95521 3.3307V3.87567C9.95521 4.77859 9.14192 5.51056 8.13866 5.51056H0.266949ZM0.266949 16.4099V14.23H8.13866C10.4796 14.23 12.3773 15.9379 12.3773 18.0447V18.5897C12.3773 20.3956 10.7507 21.8595 8.74418 21.8595C6.73767 21.8595 5.11108 20.3956 5.11108 18.5897V17.4998H7.53315V18.5897C7.53315 19.1917 8.07534 19.6796 8.74418 19.6796C9.41301 19.6796 9.95521 19.1917 9.95521 18.5897V18.0447C9.95521 17.1418 9.14192 16.4099 8.13866 16.4099H0.266949Z"
    fill="#19AAE3"
  />
</svg>