<svg width="22" height="15" viewBox="0 0 22 15" fill="none" xmlns="http://www.w3.org/2000/svg">
  <path
    opacity="0.3"
    fill-rule="evenodd"
    clip-rule="evenodd"
    d="M21.8313 4.50177C21.8313 5.85616 20.7052 6.9541 19.3161 6.9541C17.927 6.9541 16.8009 5.85616 16.8009 4.50177C16.8009 3.14739 19.3161 0.414551 19.3161 0.414551C19.3161 0.414551 21.8313 3.14739 21.8313 4.50177ZM5.0632 4.50198C5.0632 5.85636 3.9371 6.95431 2.54799 6.95431C1.15887 6.95431 0.0327759 5.85636 0.0327759 4.50198C0.0327759 3.14759 2.54799 0.414758 2.54799 0.414758C2.54799 0.414758 5.0632 3.14759 5.0632 4.50198ZM6.90785 14.584C8.29696 14.584 9.42306 13.486 9.42306 12.1316C9.42306 10.7772 6.90785 8.0444 6.90785 8.0444C6.90785 8.0444 4.39264 10.7772 4.39264 12.1316C4.39264 13.486 5.51874 14.584 6.90785 14.584ZM17.807 12.1316C17.807 13.486 16.6809 14.584 15.2918 14.584C13.9027 14.584 12.7766 13.486 12.7766 12.1316C12.7766 10.7772 15.2918 8.0444 15.2918 8.0444C15.2918 8.0444 17.807 10.7772 17.807 12.1316Z"
    fill="#19AAE3"
  />
  <path
    fill-rule="evenodd"
    clip-rule="evenodd"
    d="M10.932 6.9541C12.3211 6.9541 13.4472 5.85616 13.4472 4.50177C13.4472 3.14739 10.932 0.414551 10.932 0.414551C10.932 0.414551 8.41674 3.14739 8.41674 4.50177C8.41674 5.85616 9.54284 6.9541 10.932 6.9541Z"
    fill="#19AAE3"
  />
</svg>