<svg width="32" height="32" viewBox="0 0 32 32" fill="none" xmlns="http://www.w3.org/2000/svg">
  <circle cx="16" cy="16" r="16" fill="#19AAE3" fill-opacity="0.2" />
  <path
    fill-rule="evenodd"
    clip-rule="evenodd"
    d="M14.3558 24.1508L17.6781 19.6657H16.0169V16.6755L12.6946 21.1607H14.3558V24.1508Z"
    fill="#FFB602"
  />
  <path
    fill-rule="evenodd"
    clip-rule="evenodd"
    d="M13.5345 17.4232C13.5369 17.4232 13.5394 17.4232 13.5418 17.4232C13.5442 17.4232 13.5466 17.4232 13.549 17.4232H19.7089C21.257 17.4232 22.5121 16.1681 22.5121 14.6199C22.5121 13.0717 21.257 11.8167 19.7089 11.8167H17.8856C17.3877 9.88221 15.6317 8.45282 13.5418 8.45282C11.0647 8.45282 9.0566 10.4609 9.0566 12.938C9.0566 14.5188 9.87444 15.9086 11.1101 16.7074C11.6063 17.1525 12.2621 17.4232 12.9811 17.4232H13.5345Z"
    fill="white"
  />
</svg>