<svg width="23" height="22" viewBox="0 0 23 22" fill="none" xmlns="http://www.w3.org/2000/svg">
  <path
    fill-rule="evenodd"
    clip-rule="evenodd"
    d="M8.05635 14.5933C8.05916 14.5933 8.06196 14.5933 8.06477 14.5933C8.06757 14.5933 8.07038 14.5933 8.07318 14.5933H18.0558C20.5639 14.5933 22.5972 12.5601 22.5972 10.0519C22.5972 7.5438 20.5639 5.51056 18.0558 5.51056H15.102C14.2954 2.3766 11.4505 0.0609131 8.06477 0.0609131C4.05176 0.0609131 0.798569 3.3141 0.798569 7.32711C0.798569 9.8882 2.12357 12.1398 4.12547 13.4338C4.92933 14.1548 5.9917 14.5933 7.15649 14.5933H8.05635Z"
    fill="#BAE6F7"
  />
  <path
    fill-rule="evenodd"
    clip-rule="evenodd"
    d="M5.03715 21.8591C6.0404 21.8591 6.8537 21.0458 6.8537 20.0426C6.8537 19.0393 5.03715 17.015 5.03715 17.015C5.03715 17.015 3.2206 19.0393 3.2206 20.0426C3.2206 21.0458 4.03389 21.8591 5.03715 21.8591ZM11.0923 21.8592C12.0956 21.8592 12.9089 21.0459 12.9089 20.0426C12.9089 19.0393 11.0923 17.015 11.0923 17.015C11.0923 17.015 9.27577 19.0393 9.27577 20.0426C9.27577 21.0459 10.0891 21.8592 11.0923 21.8592ZM18.964 20.0426C18.964 21.0459 18.1507 21.8592 17.1475 21.8592C16.1442 21.8592 15.3309 21.0459 15.3309 20.0426C15.3309 19.0393 17.1475 17.015 17.1475 17.015C17.1475 17.015 18.964 19.0393 18.964 20.0426Z"
    fill="#19AAE3"
  />
</svg>