<svg width="16" height="16" viewBox="0 0 16 16" fill="none" xmlns="http://www.w3.org/2000/svg">
  <path
    fill-rule="evenodd"
    clip-rule="evenodd"
    d="M1.49449 8.72727H0V7.27273H1.49449C1.82987 4.23882 4.23882 1.82987 7.27273 1.49449V0H8.72727V1.49449C11.7612 1.82987 14.1701 4.23882 14.5055 7.27273H16V8.72727H14.5055C14.1701 11.7612 11.7612 14.1701 8.72727 14.5055V16H7.27273V14.5055C4.23882 14.1701 1.82987 11.7612 1.49449 8.72727ZM8 2.90909C5.18837 2.90909 2.90909 5.18837 2.90909 8C2.90909 10.8116 5.18837 13.0909 8 13.0909C10.8116 13.0909 13.0909 10.8116 13.0909 8C13.0909 5.18837 10.8116 2.90909 8 2.90909ZM8 5.09091C9.60665 5.09091 10.9091 6.39335 10.9091 8C10.9091 9.60665 9.60665 10.9091 8 10.9091C6.39335 10.9091 5.09091 9.60665 5.09091 8C5.09091 6.39335 6.39335 5.09091 8 5.09091ZM8 6.54545C7.19668 6.54545 6.54545 7.19668 6.54545 8C6.54545 8.80332 7.19668 9.45455 8 9.45455C8.80332 9.45455 9.45455 8.80332 9.45455 8C9.45455 7.19668 8.80332 6.54545 8 6.54545Z"
    fill="#343731"
    fill-opacity="0.5"
  />
</svg>