<svg width="23" height="17" viewBox="0 0 23 17" fill="none" xmlns="http://www.w3.org/2000/svg">
  <path
    fill-rule="evenodd"
    clip-rule="evenodd"
    d="M7.43862 12.0812C8.2762 10.6333 9.84168 9.65912 11.6347 9.65912C13.4277 9.65912 14.9932 10.6333 15.8308 12.0812H7.43862ZM1.9464 14.5032C1.27756 14.5032 0.735367 15.0454 0.735367 15.7143C0.735367 16.3831 1.27757 16.9253 1.9464 16.9253H21.3229C21.9918 16.9253 22.534 16.3831 22.534 15.7143C22.534 15.0454 21.9918 14.5032 21.3229 14.5032H1.9464Z"
    fill="#FFB602"
  />
  <path
    opacity="0.3"
    fill-rule="evenodd"
    clip-rule="evenodd"
    d="M9.8182 2.07611C9.8182 1.24768 10.4898 0.576111 11.3182 0.576111H11.9513C12.7797 0.576111 13.4513 1.24768 13.4513 2.07611V4.52576C13.4513 5.35419 12.7797 6.02576 11.9513 6.02576H11.3182C10.4898 6.02576 9.8182 5.35419 9.8182 4.52576V2.07611ZM16.3285 8.21467C15.7427 7.62888 15.7427 6.67913 16.3285 6.09335L18.0607 4.36118C18.6465 3.7754 19.5962 3.7754 20.182 4.36118L20.6297 4.80885C21.2154 5.39464 21.2154 6.34439 20.6297 6.93017L18.8975 8.66234C18.3117 9.24812 17.362 9.24812 16.7762 8.66234L16.3285 8.21467ZM2.70438 4.809C2.1186 5.39478 2.1186 6.34453 2.70439 6.93032L4.43655 8.66248C5.02233 9.24827 5.97208 9.24827 6.55787 8.66248L7.00554 8.21481C7.59132 7.62903 7.59132 6.67928 7.00554 6.09349L5.27337 4.36133C4.68759 3.77554 3.73784 3.77554 3.15205 4.36133L2.70438 4.809Z"
    fill="#FFB602"
  />
</svg>