<svg width="25" height="19" viewBox="0 0 25 19" fill="none" xmlns="http://www.w3.org/2000/svg">
  <path
    fill-rule="evenodd"
    clip-rule="evenodd"
    d="M12.5899 9.25677C10.0805 9.25677 8.04621 11.2911 8.04621 13.8005H17.1337C17.1337 11.2911 15.0994 9.25677 12.5899 9.25677ZM3.50252 16.0723C2.87517 16.0723 2.36659 16.5809 2.36659 17.2083C2.36659 17.8356 2.87517 18.3442 3.50252 18.3442H21.6774C22.3048 18.3442 22.8134 17.8356 22.8134 17.2083C22.8134 16.5809 22.3048 16.0723 21.6774 16.0723H3.50252Z"
    fill="#FFB602"
  />
  <path
    opacity="0.3"
    fill-rule="evenodd"
    clip-rule="evenodd"
    d="M10.8861 2.23767C10.8861 1.40924 11.5577 0.737671 12.3861 0.737671H12.7939C13.6224 0.737671 14.2939 1.40924 14.2939 2.23767V4.34936C14.2939 5.17779 13.6224 5.84936 12.7939 5.84936H12.3861C11.5577 5.84936 10.8861 5.17779 10.8861 4.34936V2.23767ZM17.0585 7.96831C16.4727 7.38252 16.4727 6.43277 17.0585 5.84699L18.5517 4.35379C19.1374 3.76801 20.0872 3.76801 20.673 4.35379L20.9613 4.64215C21.5471 5.22794 21.5471 6.17768 20.9613 6.76347L19.4681 8.25666C18.8824 8.84245 17.9326 8.84245 17.3468 8.25666L17.0585 7.96831ZM19.4057 11.8931C19.4057 11.0647 20.0772 10.3931 20.9057 10.3931H23.0174C23.8458 10.3931 24.5174 11.0647 24.5174 11.8931V12.3009C24.5174 13.1293 23.8458 13.8009 23.0174 13.8009H20.9057C20.0772 13.8009 19.4057 13.1293 19.4057 12.3009V11.8931ZM2.16278 10.3931C1.33435 10.3931 0.662781 11.0647 0.662781 11.8931V12.3009C0.662781 13.1293 1.33435 13.8009 2.16278 13.8009H4.27447C5.1029 13.8009 5.77447 13.1293 5.77447 12.3009V11.8931C5.77447 11.0647 5.1029 10.3931 4.27447 10.3931H2.16278ZM4.27933 4.64229C3.69355 5.22807 3.69355 6.17782 4.27933 6.76361L5.77252 8.2568C6.35831 8.84259 7.30806 8.84259 7.89384 8.2568L8.1822 7.96845C8.76799 7.38266 8.76799 6.43291 8.1822 5.84713L6.68901 4.35393C6.10322 3.76815 5.15347 3.76815 4.56769 4.35393L4.27933 4.64229Z"
    fill="#FFB602"
  />
</svg>